<svg xmlns="http://www.w3.org/2000/svg" version="1.1" x="0" y="0" width="30" height="30" viewBox="-7.5 -7.5 30 30" enable-background="new -7.5 -7.5 30 30" xml:space="preserve"><path d="M20.4 2c-1.1-2.5-2.8-4.6-5.1-6.1C13.1-5.6 10.4-6.5 7.5-6.5 5.6-6.5 3.7-6.1 2-5.4c-2.5 1.1-4.6 2.8-6.2 5.1C-5.6 1.9-6.5 4.6-6.5 7.5c0 1.9 0.4 3.8 1.1 5.4 1.1 2.5 2.8 4.6 5.1 6.2 2.2 1.5 4.9 2.4 7.8 2.4 1.9 0 3.8-0.4 5.4-1.1 2.5-1.1 4.7-2.8 6.2-5.1 1.5-2.2 2.4-4.9 2.4-7.8C21.5 5.6 21.1 3.7 20.4 2zM15.7 11c-0.7 1.6-1.8 3-3.2 3.9-1.4 1-3.1 1.5-5 1.5-1.2 0-2.4-0.3-3.5-0.7-1.6-0.7-3-1.8-3.9-3.2-1-1.4-1.5-3.1-1.5-5 0-1.2 0.2-2.4 0.7-3.5 0.7-1.6 1.8-3 3.2-3.9 1.4-1 3.1-1.5 5-1.5 1.2 0 2.4 0.2 3.5 0.7 1.6 0.7 3 1.8 3.9 3.2 1 1.4 1.5 3.1 1.5 5C16.4 8.7 16.2 9.9 15.7 11z"/><circle cx="7.5" cy="7.5" r="4.3"/></svg>