<svg xmlns="http://www.w3.org/2000/svg" version="1.1" x="0" y="0" width="150" height="30" viewBox="-37.5 -7.5 150 30" enable-background="new -37.5 -7.5 150 30" xml:space="preserve"><path d="M20.9-4.1c-2.2-1.5-4.9-2.4-7.8-2.4-1.9 0-3.7 0.4-5.4 1.1C5.2-4.4 3.1-2.6 1.6-0.4 0.1 1.8-0.8 4.5-0.8 7.4c0 1.9 0.4 3.7 1.1 5.4 1.1 2.5 2.8 4.6 5 6.1 2.2 1.5 4.9 2.4 7.8 2.4 1.9 0 3.7-0.4 5.4-1.1 2.5-1.1 4.6-2.8 6.1-5 1.5-2.2 2.4-4.9 2.4-7.8 0-1.9-0.4-3.7-1.1-5.4C24.9-0.5 23.1-2.6 20.9-4.1zM21.3 10.8c-0.7 1.6-1.8 2.9-3.2 3.9-1.4 1-3.1 1.5-4.9 1.5-1.2 0-2.4-0.2-3.4-0.7-1.6-0.7-2.9-1.8-3.9-3.2C4.8 10.9 4.3 9.2 4.3 7.4c0-1.2 0.2-2.4 0.7-3.4 0.7-1.6 1.8-2.9 3.2-3.9 1.4-1 3.1-1.5 5-1.5 1.2 0 2.4 0.2 3.4 0.7 1.6 0.7 2.9 1.8 3.9 3.2 1 1.4 1.5 3.1 1.5 4.9C22 8.6 21.7 9.8 21.3 10.8zM13.1 3.1c-2.4 0-4.3 1.9-4.3 4.3 0 2.4 1.9 4.3 4.3 4.3 2.4 0 4.3-1.9 4.3-4.3C17.4 5 15.5 3.1 13.1 3.1zM-11.6 12.9l-4.8-19h-3.9l-4.8 19-4.9-19H-35l7.8 27.2h4.3l4.6-18.2 4.7 18.2h4.2l7.8-27.2h-5.1L-11.6 12.9zM46.3 8.2c1.4-1.6 2-3.6 2-5.8 0-2.7-0.9-4.8-2.7-6.3-1.8-1.5-4.3-2.3-7.6-2.3h-7.9v27.2h5v-10.1h0.2l7.1 10.1h6.1l-7.7-10.1C43.2 10.7 44.9 9.8 46.3 8.2zM35.3 6.8v-8.1h3c1.6 0 2.8 0.3 3.7 1s1.4 1.7 1.4 3.1c0 1.4-0.5 2.4-1.4 3.1-0.9 0.7-2.1 1-3.7 1H35.3zM65.4-6.2L56.9 5.6V-6.2h-5v27.2h5V9.1l8.5 11.9h5.9L61.1 7.2 71.3-6.2h-5.9V-6.2zM74.5 21h3.5v-3.5h-3.5V21zM89.5 13.9c0 1.5-0.2 2.6-0.7 3.3-0.5 0.7-1.2 1-2.2 1-1 0-1.8-0.3-2.2-1-0.5-0.7-0.7-1.8-0.7-3.3V6.5h-3.5v7.9c0 2.3 0.5 4.1 1.4 5.3 1 1.2 2.4 1.8 4.4 1.8 0.8 0 1.5-0.2 2.1-0.5 0.6-0.3 1.2-0.8 1.7-1.3h0.1v1.3h3.2V6.5h-3.5V13.9L89.5 13.9zM106.8 6.5v2h-0.1c-0.5-0.8-1.2-1.4-2-1.9-0.8-0.4-1.7-0.6-2.7-0.6-2 0-3.7 0.7-5.1 2.2-1.4 1.5-2.1 3.4-2.1 5.6 0 2.3 0.7 4.1 2.1 5.5 1.4 1.4 3.1 2.1 5 2.1 0.9 0 1.8-0.2 2.7-0.6 0.8-0.4 1.6-1 2.2-1.8h0.1v2H110V6.5L106.8 6.5zM105.6 17c-0.8 0.8-1.8 1.2-3 1.2-1.3 0-2.3-0.4-3.1-1.2-0.8-0.8-1.2-1.8-1.2-3.1 0-1.3 0.4-2.4 1.2-3.3 0.8-0.9 1.8-1.3 3.1-1.3 1.2 0 2.2 0.4 3 1.3 0.8 0.8 1.2 1.9 1.2 3.2C106.7 15.1 106.3 16.1 105.6 17z"/></svg>